<svg width="53" height="32" viewBox="0 0 53 32" fill="none" xmlns="http://www.w3.org/2000/svg">
<path d="M27.5 24.4374C27.5 27.7018 24.9256 30.3481 21.75 30.3481C18.5744 30.3481 16 27.7018 16 24.4374" stroke="#F57766" stroke-width="1.55056" stroke-linecap="round"/>
<path d="M39 24.4374C39 27.7018 36.4256 30.3481 33.25 30.3481C30.0744 30.3481 27.5 27.7018 27.5 24.4374" stroke="#F57766" stroke-width="1.55056" stroke-linecap="round"/>
<path d="M27.3986 14.4971C22.9799 14.497 19.3977 10.8146 19.3976 6.27246C19.3976 6.23767 19.4001 6.20266 19.4005 6.16797L35.3966 6.16797C35.397 6.20266 35.3995 6.23767 35.3995 6.27246C35.3994 10.8147 31.8173 14.4971 27.3986 14.4971Z" fill="#F57766"/>
<line x1="27.4882" y1="10.7354" x2="27.4882" y2="26.0496" stroke="#F57766" stroke-width="2.06742"/>
<rect y="2.05615" width="14" height="2.05591" rx="1.02796" fill="#F57766"/>
<rect x="40" width="13" height="2.05591" rx="1.02796" fill="#F57766"/>
</svg>
