<svg width="107" height="67" viewBox="0 0 107 67" fill="none" xmlns="http://www.w3.org/2000/svg">
<path d="M106.5 33.7528C106.5 22.6071 99.5789 13.5718 81.7895 13.5718C79.6966 13.5718 78 14.6348 78 15.946C78 17.2573 79.6966 20 81.7895 20C95.3931 20 100 25.2296 100 33.7528C100 42.2759 95.3931 47.5 81.7895 47.5C79.6966 47.5 78 50.2483 78 51.5595C78 52.8708 79.6966 53.9337 81.7895 53.9337C99.5789 53.9337 106.5 44.8984 106.5 33.7528Z" fill="#5BDC7D"/>
<path d="M0 0H74.25V46.6442C74.25 57.6899 65.2957 66.6442 54.25 66.6442H20C8.9543 66.6442 0 57.6899 0 46.6442V0Z" fill="#5BDC7D"/>
<path d="M89.9995 46.6436C89.9995 57.6892 81.0452 66.6436 69.9995 66.6436H54.2495C65.2952 66.6436 74.2505 57.6892 74.2505 46.6436V0H89.9995V46.6436Z" fill="#36B13F"/>
<path d="M78.7495 46.6436C78.7495 57.6892 69.7952 66.6436 58.7495 66.6436H42.9995C54.0452 66.6436 62.9995 57.6892 62.9995 46.6436V0H78.7495V46.6436Z" fill="#36B13F" fill-opacity="0.66"/>
<rect y="18.3032" width="14.25" height="29.5675" rx="7.125" fill="#D8D8D8" fill-opacity="0.56"/>
</svg>
